<?xml version="1.0" encoding="utf-8"?>
<!-- Generator: Adobe Illustrator 27.2.0, SVG Export Plug-In . SVG Version: 6.00 Build 0)  -->
<svg version="1.1" id="_レイヤー_2" xmlns="http://www.w3.org/2000/svg" xmlns:xlink="http://www.w3.org/1999/xlink" x="0px"
	 y="0px" viewBox="0 0 575.2 191.2" style="enable-background:new 0 0 575.2 191.2;" xml:space="preserve">
<g id="DevelopersIO_Day_One">
	<path d="M60.5,37.8c0,26.6-8.6,37.7-31.1,37.7c-9.4,0-19.4-0.3-27.9-1C0.3,74.4,0,74.2,0,73.2V2.4C0,1.3,0.3,1.1,1.4,1
		C9.9,0.3,19.9,0,29.3,0C51.9,0,60.5,11.2,60.5,37.8z M15.1,13.2v49.1h14.2c11.6,0,15.9-7.3,15.9-24.5s-4.4-24.6-16.6-24.6
		C28.6,13.2,15.1,13.2,15.1,13.2z"/>
	<path d="M113.4,47.4v3c0,1.9-0.6,2.6-3.1,2.6H80.2c0.2,8.6,2.5,10.2,10.9,10.2h17c1,0,1.4,0.5,1.4,1.4v8c0,1.1-0.5,1.4-1.3,1.5
		c-5.1,1.1-12,1.3-18.4,1.3c-19.4,0-24.1-5.5-24.1-27.4s4.7-27.4,24.1-27.4S113.3,26,113.4,47.4L113.4,47.4z M80.1,43.6h19
		C99,35.2,96.8,33,89.8,33S80.2,35.2,80.1,43.6z"/>
	<path d="M165.7,21.2c1,0,1.4,0.4,1.2,1.5l-10.9,41.3c-2.8,10.3-4,11.4-15.7,11.4s-12.4-1.1-15.2-11.4l-11.2-41.3
		c-0.2-1.1,0.2-1.5,1.2-1.5h12.2c0.9,0,1,0.4,1.3,1.5l9.6,38.4c0.6,2.3,0.9,2.7,2.1,2.7c1.5,0,1.8-0.4,2.4-2.7l9.4-38.4
		c0.3-1.1,0.4-1.5,1.2-1.5L165.7,21.2L165.7,21.2z"/>
	<path d="M216.1,47.5v3c0,1.9-0.6,2.6-3.1,2.6h-30.2c0.2,8.6,2.5,10.2,10.9,10.2h17c1,0,1.4,0.5,1.4,1.4v8c0,1.1-0.5,1.4-1.4,1.5
		c-5.1,1.1-12,1.3-18.4,1.3c-19.4,0-24.1-5.5-24.1-27.4s4.7-27.4,24.1-27.4S216,26,216.1,47.5L216.1,47.5z M182.7,43.7h19
		c-0.1-8.5-2.3-10.7-9.3-10.7S182.8,35.3,182.7,43.7z"/>
	<path d="M235.2,0.6c1,0,1.4,0.5,1.4,1.4v71.4c0,1.1-0.5,1.5-1.4,1.5h-11.3c-1,0-1.4-0.5-1.4-1.5V2.1c0-1,0.5-1.4,1.4-1.4L235.2,0.6
		L235.2,0.6z"/>
	<path d="M291.5,48.1c0,21.9-4.5,27.4-24.5,27.4s-24.5-5.5-24.5-27.4s4.6-27.4,24.5-27.4S291.5,26.1,291.5,48.1z M256.8,48.1
		c0,12.1,1.4,15.1,10.2,15.1s10.3-3,10.3-15.1S275.8,33,267,33S256.8,36,256.8,48.1z"/>
	<path d="M346,47.4c0,22.1-4.7,28.2-22.2,28.2c-4,0-7.7-0.1-11.8-0.6v18c0,1-0.5,1.4-1.4,1.4h-11.3c-1,0-1.4-0.5-1.4-1.4V25
		c0-1.4,0.8-2.1,2-2.4c7.9-1.2,14.5-1.8,21.1-1.8C341.2,20.7,346,26.5,346,47.4L346,47.4z M312,33v29.5c2.8,0.4,6.1,0.6,8.6,0.6
		c9.7,0,11.1-2.6,11.1-15c0-11.3-0.8-15.1-10.2-15.1H312z"/>
	<path d="M399.6,47.5v3c0,1.9-0.6,2.6-3.1,2.6h-30.2c0.2,8.6,2.5,10.2,10.9,10.2h17c1,0,1.4,0.5,1.4,1.4v8c0,1.1-0.5,1.4-1.4,1.5
		c-5.1,1.1-12,1.3-18.4,1.3c-19.4,0-24.1-5.5-24.1-27.4s4.7-27.4,24.1-27.4S399.5,26,399.6,47.5L399.6,47.5z M366.2,43.7h19
		c-0.1-8.5-2.3-10.7-9.3-10.7S366.3,35.3,366.2,43.7z"/>
	<path d="M436.1,21.8c1.1,0.3,1.5,0.7,1.5,1.9v7.9c0,1-0.6,1.4-1.6,1.4h-9c-5,0-6.7,0.8-6.7,4.9v35.6c0,1.1-0.5,1.5-1.4,1.5h-11.4
		c-1,0-1.4-0.5-1.4-1.5V34.3c0-12.1,8.6-13.6,17.4-13.6C426.1,20.7,432.7,21,436.1,21.8L436.1,21.8z"/>
	<path d="M478.4,22c1.1,0.3,1.5,0.7,1.5,1.5v7.3c0,1.1-0.4,1.5-1.6,1.5H461c-3.8,0-5.7,1.1-5.7,3.5v1c0,1.8,1.1,3.2,4.6,4.4
		l12.3,4.3c8.2,2.9,10.1,7.9,10.1,14.4v1.5c0,11.2-8.3,14-20.5,14c-8.4,0-15.3-0.5-19.9-1c-1.2,0-1.6-0.4-1.6-1.4v-7.8
		c0-1.1,0.5-1.4,1.6-1.4h19.7c5.1,0,6.6-0.7,6.6-3.3v-0.9c0-1.8-1.1-3.1-5.3-4.5L451.2,51c-7.6-2.6-9.8-8.5-9.8-14.6v-1.8
		c0-10.3,8-13.8,21.8-13.8C467.3,20.7,472.8,21,478.4,22L478.4,22z"/>
	<path d="M503.5,0.6c1,0,1.4,0.5,1.4,1.5v71.3c0,1.1-0.5,1.5-1.4,1.5h-12.2c-1,0-1.4-0.5-1.4-1.5V2.2c0-1.1,0.5-1.5,1.4-1.5
		C491.3,0.6,503.5,0.6,503.5,0.6z"/>
	<path d="M575.2,37.9c0,29-6.6,37.6-31.2,37.6s-31.2-8.6-31.2-37.6s6.6-37.9,31.2-37.9S575.2,8.7,575.2,37.9L575.2,37.9z
		 M528.2,37.9c0,18.6,2.6,24.4,15.9,24.4s15.9-5.8,15.9-24.4s-2.6-24.7-15.9-24.7S528.2,19.1,528.2,37.9z"/>
	<path d="M60.5,134.1c0,26.6-8.6,37.7-31.1,37.7c-9.4,0-19.4-0.3-27.9-1c-1.1-0.1-1.4-0.3-1.4-1.2V98.7c0-1.1,0.3-1.2,1.4-1.3
		c8.5-0.8,18.5-1.1,27.9-1.1C51.9,96.3,60.5,107.6,60.5,134.1L60.5,134.1z M15.1,109.5v49.1h14.2c11.6,0,15.9-7.3,15.9-24.5
		s-4.4-24.6-16.6-24.6C28.6,109.5,15.1,109.5,15.1,109.5z"/>
	<path d="M109.6,133.5v33.3c0,1.5-0.4,2.4-2.1,3c-6.7,1.5-15.2,2-21.8,2c-14.4,0-22-1.5-22.2-16.6c0.2-13,6.9-15.8,19.7-15.8h12.2
		v-3.5c0-4.6-2.9-6.6-9-6.6H68.9c-1.1,0-1.3-0.3-1.3-1.4V120c0-1.2,0.4-1.3,1.3-1.5c5.9-1.2,11.4-1.4,17.4-1.4
		C105.4,117,109.6,123.2,109.6,133.5L109.6,133.5z M84.3,148.6c-5,0-6.7,1.6-6.7,5.8c0,4.6,2.1,5.9,8.2,5.9c1.9,0,6.8-0.2,9.6-1
		v-10.7H84.3L84.3,148.6z"/>
	<path d="M163.8,117.5c1,0,1.4,0.5,1.4,1.4v51.2c-0.1,14.4-2.9,21.1-23.6,21.1c-6.9,0-12.6-0.4-18.1-1.4c-0.9-0.1-1.3-0.5-1.3-1.5
		V181c0-1.1,0.4-1.4,1.3-1.4h16.8c8.5,0,10.5-1.9,10.5-8.3v-0.6c-4.1,0.8-7.7,1.1-11.7,1.1c-17.5,0-22.7-6.7-22.7-24.8v-28.1
		c0-1,0.5-1.4,1.4-1.4h11.4c1,0,1.4,0.5,1.4,1.4v25.4c0,12.4,1.8,15.1,11.5,15.1c2.4,0,5.9-0.1,8.6-0.6v-39.9c0-1,0.5-1.4,1.4-1.4
		L163.8,117.5L163.8,117.5z"/>
	<path d="M252.3,134.2c0,29-6.6,37.6-31.1,37.6s-31.1-8.6-31.1-37.6s6.6-37.9,31.1-37.9S252.3,105,252.3,134.2z M205.3,134.2
		c0,18.6,2.6,24.4,15.9,24.4s15.9-5.8,15.9-24.4s-2.6-24.7-15.9-24.7S205.3,115.4,205.3,134.2z"/>
	<path d="M307,140.1v29.7c0,1.1-0.6,1.5-1.5,1.5h-11.3c-1,0-1.4-0.5-1.4-1.5v-26.1c0-13.8-1.4-14.4-10.3-14.4h-8.8v40.5
		c0,1.1-0.5,1.5-1.4,1.5h-11.4c-1,0-1.4-0.5-1.4-1.5v-49.7c0-1.2,0.5-1.2,1.4-1.4c6.4-1.4,15.8-1.6,23-1.6
		C302.2,117,307,120.5,307,140.1z"/>
	<path d="M361.1,143.6v3c0,1.9-0.6,2.6-3.1,2.6h-30.2c0.2,8.6,2.5,10.2,10.9,10.2h17c1,0,1.4,0.5,1.4,1.4v8c0,1.1-0.5,1.4-1.4,1.5
		c-5.1,1.1-12,1.4-18.4,1.4c-19.4,0-24.1-5.5-24.1-27.4s4.7-27.4,24.1-27.4S360.9,122.2,361.1,143.6L361.1,143.6z M327.7,139.9h19
		c-0.1-8.5-2.3-10.7-9.3-10.7S327.8,131.4,327.7,139.9z"/>
</g>
</svg>
